<svg xmlns="http://www.w3.org/2000/svg" width="24" height="24" viewBox="0 0 24 24">
    <defs>
        <linearGradient id="ddtz0igvza" x1="0%" x2="101.58%" y1="0%" y2="100.584%">
            <stop offset="0%" stop-color="#58009D"/>
            <stop offset="99.954%" stop-color="#C24747"/>
        </linearGradient>
    </defs>
    <g fill="none" fill-rule="evenodd">
        <path fill="url(#ddtz0igvza)" d="M8 0h8c4.418 0 8 3.582 8 8v8c0 4.418-3.582 8-8 8H8c-4.418 0-8-3.582-8-8V8c0-4.418 3.582-8 8-8z"/>
        <path fill="#FFF" d="M11.333 16h1.334v1.5h-1.334V16zm-1-5.667H9v-.666C9 8.194 10.194 7 11.667 7h.666C13.806 7 15 8.194 15 9.667v.566c0 1.115-.538 2.161-1.446 2.81-.557.397-.887 1.04-.887 1.724V15h-1.334v-.233c0-1.115.539-2.161 1.446-2.81.557-.397.888-1.04.888-1.724v-.566c0-.737-.597-1.334-1.334-1.334h-.666c-.737 0-1.334.597-1.334 1.334v.666z"/>
        <path fill="#FFF" fill-rule="nonzero" d="M12 19.5c4.142 0 7.5-3.358 7.5-7.5 0-4.142-3.358-7.5-7.5-7.5-4.142 0-7.5 3.358-7.5 7.5 0 4.142 3.358 7.5 7.5 7.5zm0 1c-4.694 0-8.5-3.806-8.5-8.5S7.306 3.5 12 3.5s8.5 3.806 8.5 8.5-3.806 8.5-8.5 8.5z"/>
    </g>
</svg>
